<svg width="20" height="20" viewBox="0 0 20 20" fill="none" xmlns="http://www.w3.org/2000/svg">
<mask id="mask0_140_100" style="mask-type:luminance" maskUnits="userSpaceOnUse" x="2" y="2" width="15" height="16">
<path d="M2.1875 2.30383H16.8959V17.0123H2.1875V2.30383Z" fill="white"/>
</mask>
<g mask="url(#mask0_140_100)">
<mask id="mask1_140_100" style="mask-type:luminance" maskUnits="userSpaceOnUse" x="2" y="2" width="15" height="16">
<path d="M9.54172 2.30383C5.48006 2.30383 2.1875 5.59639 2.1875 9.65805C2.1875 13.7197 5.48006 17.0123 9.54172 17.0123C13.6034 17.0123 16.8959 13.7197 16.8959 9.65805C16.8959 5.59639 13.6034 2.30383 9.54172 2.30383Z" fill="white"/>
</mask>
<g mask="url(#mask1_140_100)">
<path d="M2.1875 2.30383H16.8959V17.0123H2.1875V2.30383Z" fill="#C9FF5B"/>
</g>
</g>
<mask id="mask2_140_100" style="mask-type:luminance" maskUnits="userSpaceOnUse" x="0" y="2" width="20" height="16">
<path d="M0 2H19.7437V17.2943H0V2Z" fill="white"/>
</mask>
<g mask="url(#mask2_140_100)">
<path d="M15.6674 12.9161C15.4902 12.8098 15.2772 12.8807 15.1708 13.0579C14.6385 13.9805 13.9289 14.7613 13.0417 15.3642C11.5162 16.3935 9.671 16.7837 7.86157 16.4644C6.65506 16.2514 5.59067 15.7194 4.66807 14.9385L5.55491 14.6546C6.05181 14.5129 6.5484 14.2998 7.00986 14.1226C7.61311 13.8742 8.1806 13.5903 8.78385 13.2709C8.85506 13.2355 8.96141 13.2 9.0323 13.1646C9.77735 12.8452 10.3451 12.4904 10.7708 12.1711C10.7354 12.3838 10.5936 12.8098 10.2388 13.2355C9.84856 13.6966 9.35165 13.8742 9.13865 13.9451C9.56466 13.9451 10.3097 13.9096 11.1614 13.5548C11.9419 13.2 12.4743 12.7031 12.7224 12.4192C12.7224 12.0999 12.7224 11.1776 12.1549 10.2904C11.5162 9.29692 10.5936 8.94212 10.2743 8.83546C9.88401 9.01302 9.20986 9.33236 8.60661 10.0065C7.8258 10.8582 7.57767 11.7805 7.50645 12.2065C7.61311 12.029 8.00336 11.4257 8.78385 11.213C9.13865 11.1064 9.458 11.1418 9.671 11.1776C9.20986 11.4969 8.71295 11.8872 8.21636 12.2774C7.68401 12.6322 7.15165 12.9516 6.58417 13.2355C6.15816 13.4839 5.69702 13.6966 5.23556 13.8742L4.06482 14.3707C3.81637 14.1226 3.60336 13.8742 3.42612 13.5548C2.39718 12.029 2.00693 10.1841 2.32628 8.37432C2.68108 6.56456 3.67457 4.96813 5.20011 3.93887C7.89701 2.09399 11.5517 2.37789 13.8934 4.64878C14.0352 4.79057 14.2482 4.79057 14.3903 4.64878C14.5321 4.50667 14.5321 4.29367 14.3903 4.15188C11.8001 1.66797 7.75491 1.34863 4.80986 3.37138C3.14222 4.50667 2.00693 6.24521 1.61637 8.26797C1.43913 9.15481 1.43913 10.042 1.58092 10.9291C1.22612 11.3194 0.871324 11.7451 0.587422 12.2065C0.410182 12.4904 0.268073 12.8098 0.161728 13.1646C0.055384 13.5194 -0.0158288 13.8742 0.0908322 14.2644C0.12628 14.442 0.232625 14.6546 0.374734 14.7968C0.516526 14.9385 0.694083 15.0449 0.835876 15.1516C1.19067 15.3288 1.54547 15.4 1.93572 15.4C2.57442 15.4355 3.21312 15.3288 3.85181 15.187C4.91621 16.2159 6.22905 16.8901 7.71946 17.174C8.1806 17.2449 8.67751 17.3158 9.13865 17.3158C10.6645 17.3158 12.1549 16.8546 13.4323 15.9675C14.3903 15.2933 15.2063 14.442 15.7741 13.4127C15.9159 13.2355 15.845 13.0225 15.6674 12.9161ZM1.08433 14.7255C0.764979 14.6192 0.551974 14.442 0.481078 14.1581C0.374734 13.8742 0.410182 13.5548 0.481078 13.2355C0.551974 12.9161 0.658319 12.5968 0.800428 12.2774C1.01312 11.8163 1.33247 11.3548 1.65182 10.9646C1.82937 12.029 2.25507 13.0579 2.85832 13.9805C3.00043 14.1935 3.17767 14.4062 3.35522 14.6192C2.89377 14.7613 2.43262 14.8322 1.97116 14.8677C1.65182 14.8677 1.36823 14.8322 1.08433 14.7255ZM15.3126 5.96163L13.8225 6.91968C13.0063 6.42277 12.1195 6.35187 11.4453 6.77757C10.9838 7.06147 10.6999 7.55806 10.5936 8.16131C10.8421 8.23252 11.126 8.33887 11.3741 8.48066C11.9064 8.80001 12.403 9.26147 12.7936 9.90017C13.1838 10.5389 13.3965 11.1776 13.4677 11.8163C13.5032 12.0999 13.4677 12.3838 13.4323 12.6677C13.9998 12.8098 14.5676 12.774 15.0645 12.4904C15.7386 12.0644 16.058 11.213 15.9513 10.255L17.4417 9.29692C18.1159 8.87091 18.6482 8.30342 19.0385 7.66472C19.4287 7.02602 19.6772 6.28098 19.7481 5.50017C18.2577 4.96813 16.6255 5.14537 15.3126 5.96163ZM15.7386 9.11936C15.1708 9.47416 14.4612 9.43871 14.1773 9.01302C13.8934 8.58732 14.1419 7.94862 14.7451 7.55806C15.3126 7.20326 16.0225 7.23871 16.3061 7.66472C16.5546 8.09041 16.3419 8.76456 15.7386 9.11936Z" fill="#111827"/>
</g>
</svg>
